<?xml version="1.0" encoding="UTF-8" standalone="no"?>
<svg width="150.636mm" height="63.5mm"
 xmlns="http://www.w3.org/2000/svg" xmlns:xlink="http://www.w3.org/1999/xlink"  version="1.2" baseProfile="tiny">
<title>Qt SVG Document</title>
<desc>Generated with Qt</desc>
<defs>
</defs>
<g fill="none" stroke="black" stroke-width="1" fill-rule="evenodd" stroke-linecap="square" stroke-linejoin="bevel" >

<g fill="none" stroke="#000000" stroke-opacity="1" stroke-width="1" stroke-linecap="square" stroke-linejoin="bevel" transform="matrix(1,0,0,1,0,0)"
font-family="Sans Serif" font-size="9" font-weight="400" font-style="normal" 
>
</g>

<g fill="none" stroke="#000000" stroke-opacity="1" stroke-width="1" stroke-linecap="square" stroke-linejoin="bevel" transform="matrix(1,0,0,1,0,0)"
font-family="Sans Serif" font-size="9" font-weight="400" font-style="normal" 
>
</g>

<g fill="none" stroke="#000000" stroke-opacity="1" stroke-width="1" stroke-linecap="square" stroke-linejoin="bevel" transform="matrix(2,0,0,2,-0.0024,180)"
font-family="Sans Serif" font-size="9" font-weight="400" font-style="normal" 
>
</g>

<g fill="#ffffff" fill-opacity="1" stroke="none" transform="matrix(2,0,0,2,-0.0024,180)"
font-family="Sans Serif" font-size="9" font-weight="400" font-style="normal" 
>
<rect x="0.0012" y="-90" width="213.483" height="90"/>
</g>

<g fill="none" stroke="#000000" stroke-opacity="1" stroke-width="1" stroke-linecap="square" stroke-linejoin="bevel" transform="matrix(2,0,0,2,-0.0024,180)"
font-family="Sans Serif" font-size="9" font-weight="400" font-style="normal" 
>
</g>

<g fill="none" stroke="#000000" stroke-opacity="1" stroke-width="1" stroke-linecap="square" stroke-linejoin="bevel" transform="matrix(2,0,0,2,-0.0024,180)"
font-family="Sans Serif" font-size="9" font-weight="400" font-style="normal" 
>
</g>

<g fill="none" stroke="#000000" stroke-opacity="1" stroke-width="1" stroke-linecap="square" stroke-linejoin="bevel" transform="matrix(2,0,0,2,-0.0024,180)"
font-family="Sans Serif" font-size="9" font-weight="400" font-style="normal" 
>
</g>

<g fill="none" stroke="#000000" stroke-opacity="1" stroke-width="1" stroke-linecap="square" stroke-linejoin="bevel" transform="matrix(2,0,0,2,-0.0024,180)"
font-family="Sans Serif" font-size="9" font-weight="400" font-style="normal" 
>
</g>

<g fill="none" stroke="#000000" stroke-opacity="1" stroke-width="1" stroke-linecap="square" stroke-linejoin="round" transform="matrix(2,0,0,2,-0.0024,180)"
font-family="Sans Serif" font-size="9" font-weight="400" font-style="normal" 
>
<ellipse cx="166.04" cy="-18" rx="45.6448" ry="17.5"/>
</g>

<g fill="none" stroke="#000000" stroke-opacity="1" stroke-width="1" stroke-linecap="square" stroke-linejoin="bevel" transform="matrix(2,0,0,2,-0.0024,180)"
font-family="Sans Serif" font-size="9" font-weight="400" font-style="normal" 
>
</g>

<g fill="none" stroke="#000000" stroke-opacity="1" stroke-width="1" stroke-linecap="square" stroke-linejoin="bevel" transform="matrix(2,0,0,2,277.406,131)"
font-family="Sans Serif" font-size="9" font-weight="400" font-style="normal" 
>
</g>

<g fill="none" stroke="#000000" stroke-opacity="1" stroke-width="1" stroke-linecap="square" stroke-linejoin="bevel" transform="matrix(2,0,0,2,277.406,131)"
font-family="sans" font-size="11" font-weight="100" font-style="normal" 
>
</g>

<g fill="#000000" fill-opacity="1" stroke="#000000" stroke-opacity="1" stroke-width="1" stroke-linecap="square" stroke-linejoin="round" transform="matrix(2,0,0,2,277.406,131)"
font-family="sans" font-size="11" font-weight="100" font-style="normal" 
>
<path vector-effect="none" fill-rule="nonzero" d="M2.96875,1.98438 L3.53125,1.98438 L0.734375,11.0156 L0.171875,11.0156 L2.96875,1.98438 M5.4375,8.64062 L5.4375,12.2812 L4.95312,12.2812 L4.95312,3.98438 L5.4375,3.98438 L5.4375,5.35938 C5.66667,4.83854 5.91146,4.47917 6.17188,4.28125 C6.57812,3.98958 6.96354,3.84375 7.32812,3.84375 C8.03646,3.84375 8.6276,4.13281 9.10156,4.71094 C9.57552,5.28906 9.8125,6.05208 9.8125,7 C9.8125,7.94792 9.57552,8.71094 9.10156,9.28906 C8.6276,9.86719 8.03646,10.1562 7.32812,10.1562 C6.96354,10.1562 6.57812,10.0052 6.17188,9.70312 C5.91146,9.51562 5.66667,9.16146 5.4375,8.64062 M8.67188,9.09375 C9.08854,8.67708 9.29688,7.97917 9.29688,7 C9.29688,6.02083 9.08854,5.32292 8.67188,4.90625 C8.25521,4.48958 7.81771,4.28125 7.35938,4.28125 C6.91146,4.28125 6.47917,4.48958 6.0625,4.90625 C5.65625,5.32292 5.45312,6.02083 5.45312,7 C5.45312,7.97917 5.65625,8.67708 6.0625,9.09375 C6.47917,9.51042 6.91146,9.71875 7.35938,9.71875 C7.81771,9.71875 8.25521,9.51042 8.67188,9.09375 M11.9219,7.60938 L11.9219,3.98438 L12.4062,3.98438 L12.4062,7.57812 C12.4062,8.35938 12.5339,8.90885 12.7891,9.22656 C13.0443,9.54427 13.4115,9.70312 13.8906,9.70312 C14.4635,9.70312 14.9531,9.53125 15.3594,9.1875 C15.7656,8.84375 15.9688,8.24479 15.9688,7.39062 L15.9688,3.98438 L16.4688,3.98438 L16.4688,10 L15.9688,10 L15.9688,8.875 C15.7917,9.23958 15.5625,9.51562 15.2812,9.70312 C14.8542,9.99479 14.3854,10.1406 13.875,10.1406 C13.2812,10.1406 12.8073,9.9375 12.4531,9.53125 C12.099,9.13542 11.9219,8.49479 11.9219,7.60938 M22.6094,9.09375 C23.026,8.67708 23.2344,7.97917 23.2344,7 C23.2344,6.02083 23.026,5.32292 22.6094,4.90625 C22.1927,4.48958 21.7552,4.28125 21.2969,4.28125 C20.849,4.28125 20.4167,4.48958 20,4.90625 C19.5938,5.32292 19.3906,6.02083 19.3906,7 C19.3906,7.97917 19.5938,8.67708 20,9.09375 C20.4167,9.51042 20.849,9.71875 21.2969,9.71875 C21.7552,9.71875 22.1927,9.51042 22.6094,9.09375 M19.375,5.35938 C19.6042,4.83854 19.849,4.47917 20.1094,4.28125 C20.5156,3.98958 20.901,3.84375 21.2656,3.84375 C21.974,3.84375 22.5651,4.13281 23.0391,4.71094 C23.513,5.28906 23.75,6.05208 23.75,7 C23.75,7.94792 23.513,8.71094 23.0391,9.28906 C22.5651,9.86719 21.974,10.1562 21.2656,10.1562 C20.901,10.1562 20.5156,10.0052 20.1094,9.70312 C19.849,9.51562 19.6042,9.16146 19.375,8.64062 L19.375,10 L18.8906,10 L18.8906,1.64062 L19.375,1.64062 L19.375,5.35938 M25.8594,1.64062 L26.3438,1.64062 L26.3438,10 L25.8594,10 L25.8594,1.64062 M28.8906,3.98438 L29.3906,3.98438 L29.3906,10 L28.8906,10 L28.8906,3.98438 M28.8906,1.64062 L29.3906,1.64062 L29.3906,2.3125 L28.8906,2.3125 L28.8906,1.64062 M35.3594,4.15625 L35.3594,4.70312 C35.0052,4.50521 34.7865,4.39583 34.7031,4.375 C34.4531,4.32292 34.1406,4.29167 33.7656,4.28125 C33.2031,4.28125 32.7604,4.39062 32.4375,4.60938 C32.1875,4.79688 32.0625,5.11458 32.0625,5.5625 C32.0625,5.875 32.1823,6.11458 32.4219,6.28125 C32.6615,6.46875 33.0104,6.61458 33.4688,6.71875 L33.8125,6.78125 C34.3854,6.90625 34.8177,7.08333 35.1094,7.3125 C35.4531,7.58333 35.6302,7.92708 35.6406,8.34375 C35.6406,8.90625 35.474,9.34896 35.1406,9.67188 C34.7865,9.99479 34.2083,10.1562 33.4062,10.1562 C32.9688,10.1562 32.6354,10.125 32.4062,10.0625 C32.125,9.98958 31.8333,9.89583 31.5312,9.78125 L31.5312,9.15625 C31.9688,9.40625 32.25,9.55208 32.375,9.59375 C32.7292,9.6875 33.0833,9.73438 33.4375,9.73438 C34.0104,9.73438 34.4375,9.61458 34.7188,9.375 C35,9.125 35.1406,8.80729 35.1406,8.42188 C35.1406,8.08854 35.0469,7.84896 34.8594,7.70312 C34.5885,7.48438 34.1615,7.30729 33.5781,7.17188 L33.2344,7.09375 C32.724,6.96875 32.3385,6.80208 32.0781,6.59375 C31.7448,6.32292 31.5781,5.99479 31.5781,5.60938 C31.5781,4.98438 31.7786,4.53385 32.1797,4.25781 C32.5807,3.98177 33.0729,3.84375 33.6562,3.84375 C34.1562,3.84375 34.5,3.86979 34.6875,3.92188 C34.9167,3.98438 35.1406,4.0625 35.3594,4.15625 M42.2188,6.375 L42.2188,10 L41.7188,10 L41.7188,6.40625 C41.7188,5.625 41.5885,5.07552 41.3281,4.75781 C41.0677,4.4401 40.6719,4.28125 40.1406,4.28125 C39.526,4.28125 39.0417,4.45833 38.6875,4.8125 C38.3333,5.16667 38.1562,5.76042 38.1562,6.59375 L38.1562,10 L37.6719,10 L37.6719,1.64062 L38.1562,1.64062 L38.1562,5.09375 C38.2708,4.79167 38.4792,4.52083 38.7812,4.28125 C39.125,3.98958 39.6146,3.84375 40.25,3.84375 C40.8542,3.84375 41.3333,4.05729 41.6875,4.48438 C42.0417,4.91146 42.2188,5.54167 42.2188,6.375 M49.3281,6.75 L49.3281,7.0625 L44.7656,7.0625 C44.7656,8.02083 44.9531,8.69792 45.3281,9.09375 C45.7448,9.52083 46.3594,9.73438 47.1719,9.73438 C47.3906,9.73438 47.6771,9.6875 48.0312,9.59375 C48.3854,9.5 48.7396,9.35938 49.0938,9.17188 L49.0938,9.6875 C48.7396,9.84375 48.3776,9.96094 48.0078,10.0391 C47.638,10.1172 47.3438,10.1562 47.125,10.1562 C46.1979,10.1562 45.5,9.90625 45.0312,9.40625 C44.5208,8.875 44.2656,8.09375 44.2656,7.0625 C44.2656,5.98958 44.4948,5.1875 44.9531,4.65625 C45.4323,4.11458 46.099,3.84375 46.9531,3.84375 C47.7344,3.84375 48.3281,4.10417 48.7344,4.625 C49.1302,5.16667 49.3281,5.875 49.3281,6.75 M48.8281,6.64062 C48.8281,5.79688 48.6354,5.18229 48.25,4.79688 C47.9375,4.45312 47.5052,4.28125 46.9531,4.28125 C46.3594,4.28125 45.8594,4.45833 45.4531,4.8125 C45.0781,5.14583 44.8542,5.75521 44.7812,6.64062 L48.8281,6.64062 M54.6719,4.40625 C54.5885,4.36458 54.4792,4.33333 54.3438,4.3125 C54.2188,4.29167 54.0677,4.28125 53.8906,4.28125 C53.276,4.28125 52.7708,4.50521 52.375,4.95312 C52.0521,5.31771 51.8906,5.94271 51.8906,6.82812 L51.8906,10 L51.4062,10 L51.4062,3.98438 L51.8906,3.98438 L51.8906,5.10938 C52.0573,4.78646 52.2865,4.51562 52.5781,4.29688 C52.974,3.99479 53.4427,3.84375 53.9844,3.84375 C54.1302,3.84375 54.2552,3.84896 54.3594,3.85938 C54.4635,3.85938 54.5677,3.86979 54.6719,3.89062 L54.6719,4.40625"/>
</g>

<g fill="none" stroke="#000000" stroke-opacity="1" stroke-width="1" stroke-linecap="square" stroke-linejoin="bevel" transform="matrix(2,0,0,2,277.406,131)"
font-family="sans" font-size="11" font-weight="100" font-style="normal" 
>
</g>

<g fill="none" stroke="#000000" stroke-opacity="1" stroke-width="1" stroke-linecap="square" stroke-linejoin="bevel" transform="matrix(2,0,0,2,277.406,131)"
font-family="Sans Serif" font-size="9" font-weight="400" font-style="normal" 
>
</g>

<g fill="none" stroke="#000000" stroke-opacity="1" stroke-width="1" stroke-linecap="square" stroke-linejoin="bevel" transform="matrix(2,0,0,2,-0.0024,180)"
font-family="Sans Serif" font-size="9" font-weight="400" font-style="normal" 
>
</g>

<g fill="none" stroke="#000000" stroke-opacity="1" stroke-width="1" stroke-linecap="square" stroke-linejoin="bevel" transform="matrix(2,0,0,2,-0.0024,180)"
font-family="Sans Serif" font-size="9" font-weight="400" font-style="normal" 
>
</g>

<g fill="none" stroke="#000000" stroke-opacity="1" stroke-width="1" stroke-linecap="square" stroke-linejoin="bevel" transform="matrix(2,0,0,2,-0.0024,180)"
font-family="Sans Serif" font-size="9" font-weight="400" font-style="normal" 
>
</g>

<g fill="none" stroke="#000000" stroke-opacity="1" stroke-width="1" stroke-linecap="square" stroke-linejoin="round" transform="matrix(2,0,0,2,-0.0024,180)"
font-family="Sans Serif" font-size="9" font-weight="400" font-style="normal" 
>
<ellipse cx="40.296" cy="-45" rx="39.7948" ry="17.5"/>
</g>

<g fill="none" stroke="#000000" stroke-opacity="1" stroke-width="1" stroke-linecap="square" stroke-linejoin="bevel" transform="matrix(2,0,0,2,-0.0024,180)"
font-family="Sans Serif" font-size="9" font-weight="400" font-style="normal" 
>
</g>

<g fill="none" stroke="#000000" stroke-opacity="1" stroke-width="1" stroke-linecap="square" stroke-linejoin="bevel" transform="matrix(2,0,0,2,32.9958,77)"
font-family="Sans Serif" font-size="9" font-weight="400" font-style="normal" 
>
</g>

<g fill="none" stroke="#000000" stroke-opacity="1" stroke-width="1" stroke-linecap="square" stroke-linejoin="bevel" transform="matrix(2,0,0,2,32.9958,77)"
font-family="sans" font-size="11" font-weight="100" font-style="normal" 
>
</g>

<g fill="#000000" fill-opacity="1" stroke="#000000" stroke-opacity="1" stroke-width="1" stroke-linecap="square" stroke-linejoin="round" transform="matrix(2,0,0,2,32.9958,77)"
font-family="sans" font-size="11" font-weight="100" font-style="normal" 
>
<path vector-effect="none" fill-rule="nonzero" d="M2.96875,1.98438 L3.53125,1.98438 L0.734375,11.0156 L0.171875,11.0156 L2.96875,1.98438 M8.35938,4.15625 L8.35938,4.70312 C8.00521,4.50521 7.78646,4.39583 7.70312,4.375 C7.45312,4.32292 7.14062,4.29167 6.76562,4.28125 C6.20312,4.28125 5.76042,4.39062 5.4375,4.60938 C5.1875,4.79688 5.0625,5.11458 5.0625,5.5625 C5.0625,5.875 5.18229,6.11458 5.42188,6.28125 C5.66146,6.46875 6.01042,6.61458 6.46875,6.71875 L6.8125,6.78125 C7.38542,6.90625 7.81771,7.08333 8.10938,7.3125 C8.45312,7.58333 8.63021,7.92708 8.64062,8.34375 C8.64062,8.90625 8.47396,9.34896 8.14062,9.67188 C7.78646,9.99479 7.20833,10.1562 6.40625,10.1562 C5.96875,10.1562 5.63542,10.125 5.40625,10.0625 C5.125,9.98958 4.83333,9.89583 4.53125,9.78125 L4.53125,9.15625 C4.96875,9.40625 5.25,9.55208 5.375,9.59375 C5.72917,9.6875 6.08333,9.73438 6.4375,9.73438 C7.01042,9.73438 7.4375,9.61458 7.71875,9.375 C8,9.125 8.14062,8.80729 8.14062,8.42188 C8.14062,8.08854 8.04688,7.84896 7.85938,7.70312 C7.58854,7.48438 7.16146,7.30729 6.57812,7.17188 L6.23438,7.09375 C5.72396,6.96875 5.33854,6.80208 5.07812,6.59375 C4.74479,6.32292 4.57812,5.99479 4.57812,5.60938 C4.57812,4.98438 4.77865,4.53385 5.17969,4.25781 C5.58073,3.98177 6.07292,3.84375 6.65625,3.84375 C7.15625,3.84375 7.5,3.86979 7.6875,3.92188 C7.91667,3.98438 8.14062,4.0625 8.35938,4.15625 M15.3594,6.75 L15.3594,7.0625 L10.7969,7.0625 C10.7969,8.02083 10.9844,8.69792 11.3594,9.09375 C11.776,9.52083 12.3906,9.73438 13.2031,9.73438 C13.4219,9.73438 13.7083,9.6875 14.0625,9.59375 C14.4167,9.5 14.7708,9.35938 15.125,9.17188 L15.125,9.6875 C14.7708,9.84375 14.4089,9.96094 14.0391,10.0391 C13.6693,10.1172 13.375,10.1562 13.1562,10.1562 C12.2292,10.1562 11.5312,9.90625 11.0625,9.40625 C10.5521,8.875 10.2969,8.09375 10.2969,7.0625 C10.2969,5.98958 10.526,5.1875 10.9844,4.65625 C11.4635,4.11458 12.1302,3.84375 12.9844,3.84375 C13.7656,3.84375 14.3594,4.10417 14.7656,4.625 C15.1615,5.16667 15.3594,5.875 15.3594,6.75 M14.8594,6.64062 C14.8594,5.79688 14.6667,5.18229 14.2812,4.79688 C13.9688,4.45312 13.5365,4.28125 12.9844,4.28125 C12.3906,4.28125 11.8906,4.45833 11.4844,4.8125 C11.1094,5.14583 10.8854,5.75521 10.8125,6.64062 L14.8594,6.64062 M17.4375,1.64062 L17.9219,1.64062 L17.9219,10 L17.4375,10 L17.4375,1.64062 M25.1719,6.75 L25.1719,7.0625 L20.6094,7.0625 C20.6094,8.02083 20.7969,8.69792 21.1719,9.09375 C21.5885,9.52083 22.2031,9.73438 23.0156,9.73438 C23.2344,9.73438 23.5208,9.6875 23.875,9.59375 C24.2292,9.5 24.5833,9.35938 24.9375,9.17188 L24.9375,9.6875 C24.5833,9.84375 24.2214,9.96094 23.8516,10.0391 C23.4818,10.1172 23.1875,10.1562 22.9688,10.1562 C22.0417,10.1562 21.3438,9.90625 20.875,9.40625 C20.3646,8.875 20.1094,8.09375 20.1094,7.0625 C20.1094,5.98958 20.3385,5.1875 20.7969,4.65625 C21.276,4.11458 21.9427,3.84375 22.7969,3.84375 C23.5781,3.84375 24.1719,4.10417 24.5781,4.625 C24.974,5.16667 25.1719,5.875 25.1719,6.75 M24.6719,6.64062 C24.6719,5.79688 24.4792,5.18229 24.0938,4.79688 C23.7812,4.45312 23.349,4.28125 22.7969,4.28125 C22.2031,4.28125 21.7031,4.45833 21.2969,4.8125 C20.9219,5.14583 20.6979,5.75521 20.625,6.64062 L24.6719,6.64062 M31.3594,4.28125 L31.3594,4.79688 C31.0677,4.61979 30.8229,4.5 30.625,4.4375 C30.2917,4.33333 29.974,4.28125 29.6719,4.28125 C28.8073,4.28125 28.1875,4.5026 27.8125,4.94531 C27.4375,5.38802 27.25,6.07292 27.25,7 C27.25,7.9375 27.4375,8.6276 27.8125,9.07031 C28.1875,9.51302 28.8073,9.73438 29.6719,9.73438 C29.9635,9.73438 30.2448,9.69271 30.5156,9.60938 C30.8073,9.53646 31.0885,9.42188 31.3594,9.26562 L31.3594,9.76562 C31.0885,9.90104 30.8073,10 30.5156,10.0625 C30.2135,10.125 29.9167,10.1562 29.625,10.1562 C28.75,10.1562 28.0521,9.91667 27.5312,9.4375 C27.0104,8.95833 26.75,8.14323 26.75,6.99219 C26.75,5.84115 27.0104,5.02604 27.5312,4.54688 C28.0521,4.07812 28.75,3.84375 29.625,3.84375 C29.9167,3.84375 30.224,3.88542 30.5469,3.96875 C30.8698,4.04167 31.1406,4.14583 31.3594,4.28125 M33.8125,2.28125 L33.8125,3.98438 L35.8438,3.98438 L35.8438,4.40625 L33.8125,4.40625 L33.8125,8.01562 C33.8125,8.47396 33.8698,8.79688 33.9844,8.98438 C34.2344,9.38021 34.5938,9.57812 35.0625,9.57812 L35.8438,9.57812 L35.8438,10 L35.0781,10 C34.5885,10 34.1719,9.85677 33.8281,9.57031 C33.4844,9.28385 33.3125,8.76562 33.3125,8.01562 L33.3125,4.40625 L32.5938,4.40625 L32.5938,3.98438 L33.3125,3.98438 L33.3125,2.28125 L33.8125,2.28125 M41.1875,5.01562 C40.8333,4.52604 40.349,4.28125 39.7344,4.28125 C39.1198,4.28125 38.6354,4.52604 38.2812,5.01562 C37.9271,5.49479 37.75,6.15104 37.75,6.98438 C37.75,7.83854 37.9271,8.51042 38.2812,9 C38.6354,9.48958 39.1198,9.73438 39.7344,9.73438 C40.349,9.73438 40.8333,9.48958 41.1875,9 C41.5417,8.5 41.7188,7.82812 41.7188,6.98438 C41.7188,6.16146 41.5417,5.50521 41.1875,5.01562 M39.7344,3.84375 C40.4948,3.84375 41.099,4.13021 41.5469,4.70312 C41.9948,5.27604 42.2188,6.03646 42.2188,6.98438 C42.2188,7.97396 41.9948,8.75521 41.5469,9.32812 C41.099,9.90104 40.4948,10.1875 39.7344,10.1875 C38.9531,10.1875 38.3385,9.90104 37.8906,9.32812 C37.4531,8.75521 37.2344,7.97396 37.2344,6.98438 C37.2344,6.02604 37.4583,5.26302 37.9062,4.69531 C38.3542,4.1276 38.9635,3.84375 39.7344,3.84375 M47.5938,4.40625 C47.5104,4.36458 47.401,4.33333 47.2656,4.3125 C47.1406,4.29167 46.9896,4.28125 46.8125,4.28125 C46.1979,4.28125 45.6927,4.50521 45.2969,4.95312 C44.974,5.31771 44.8125,5.94271 44.8125,6.82812 L44.8125,10 L44.3281,10 L44.3281,3.98438 L44.8125,3.98438 L44.8125,5.10938 C44.9792,4.78646 45.2083,4.51562 45.5,4.29688 C45.8958,3.99479 46.3646,3.84375 46.9062,3.84375 C47.0521,3.84375 47.1771,3.84896 47.2812,3.85938 C47.3854,3.85938 47.4896,3.86979 47.5938,3.89062 L47.5938,4.40625"/>
</g>

<g fill="none" stroke="#000000" stroke-opacity="1" stroke-width="1" stroke-linecap="square" stroke-linejoin="bevel" transform="matrix(2,0,0,2,32.9958,77)"
font-family="sans" font-size="11" font-weight="100" font-style="normal" 
>
</g>

<g fill="none" stroke="#000000" stroke-opacity="1" stroke-width="1" stroke-linecap="square" stroke-linejoin="bevel" transform="matrix(2,0,0,2,32.9958,77)"
font-family="Sans Serif" font-size="9" font-weight="400" font-style="normal" 
>
</g>

<g fill="none" stroke="#000000" stroke-opacity="1" stroke-width="1" stroke-linecap="square" stroke-linejoin="bevel" transform="matrix(2,0,0,2,-0.0024,180)"
font-family="Sans Serif" font-size="9" font-weight="400" font-style="normal" 
>
</g>

<g fill="none" stroke="#000000" stroke-opacity="1" stroke-width="1" stroke-linecap="square" stroke-linejoin="bevel" transform="matrix(2,0,0,2,-0.0024,180)"
font-family="Sans Serif" font-size="9" font-weight="400" font-style="normal" 
>
</g>

<g fill="none" stroke="#000000" stroke-opacity="1" stroke-width="1" stroke-linecap="square" stroke-linejoin="bevel" transform="matrix(2,0,0,2,-0.0024,180)"
font-family="Sans Serif" font-size="9" font-weight="400" font-style="normal" 
>
</g>

<g fill="none" stroke="#000000" stroke-opacity="1" stroke-width="1" stroke-linecap="square" stroke-linejoin="round" transform="matrix(2,0,0,2,-0.0024,180)"
font-family="Sans Serif" font-size="9" font-weight="400" font-style="normal" 
>
<ellipse cx="166.04" cy="-72" rx="46.9444" ry="17.5"/>
</g>

<g fill="none" stroke="#000000" stroke-opacity="1" stroke-width="1" stroke-linecap="square" stroke-linejoin="bevel" transform="matrix(2,0,0,2,-0.0024,180)"
font-family="Sans Serif" font-size="9" font-weight="400" font-style="normal" 
>
</g>

<g fill="none" stroke="#000000" stroke-opacity="1" stroke-width="1" stroke-linecap="square" stroke-linejoin="bevel" transform="matrix(2,0,0,2,276.265,23)"
font-family="Sans Serif" font-size="9" font-weight="400" font-style="normal" 
>
</g>

<g fill="none" stroke="#000000" stroke-opacity="1" stroke-width="1" stroke-linecap="square" stroke-linejoin="bevel" transform="matrix(2,0,0,2,276.265,23)"
font-family="sans" font-size="11" font-weight="100" font-style="normal" 
>
</g>

<g fill="#000000" fill-opacity="1" stroke="#000000" stroke-opacity="1" stroke-width="1" stroke-linecap="square" stroke-linejoin="round" transform="matrix(2,0,0,2,276.265,23)"
font-family="sans" font-size="11" font-weight="100" font-style="normal" 
>
<path vector-effect="none" fill-rule="nonzero" d="M2.96875,1.98438 L3.53125,1.98438 L0.734375,11.0156 L0.171875,11.0156 L2.96875,1.98438 M4.40625,3.98438 L4.92188,3.98438 L6.95312,9.45312 L9,3.98438 L9.51562,3.98438 L7.28125,10 L6.64062,10 L4.40625,3.98438 M11.4375,3.98438 L11.9375,3.98438 L11.9375,10 L11.4375,10 L11.4375,3.98438 M11.4375,1.64062 L11.9375,1.64062 L11.9375,2.3125 L11.4375,2.3125 L11.4375,1.64062 M17.9062,4.15625 L17.9062,4.70312 C17.5521,4.50521 17.3333,4.39583 17.25,4.375 C17,4.32292 16.6875,4.29167 16.3125,4.28125 C15.75,4.28125 15.3073,4.39062 14.9844,4.60938 C14.7344,4.79688 14.6094,5.11458 14.6094,5.5625 C14.6094,5.875 14.7292,6.11458 14.9688,6.28125 C15.2083,6.46875 15.5573,6.61458 16.0156,6.71875 L16.3594,6.78125 C16.9323,6.90625 17.3646,7.08333 17.6562,7.3125 C18,7.58333 18.1771,7.92708 18.1875,8.34375 C18.1875,8.90625 18.0208,9.34896 17.6875,9.67188 C17.3333,9.99479 16.7552,10.1562 15.9531,10.1562 C15.5156,10.1562 15.1823,10.125 14.9531,10.0625 C14.6719,9.98958 14.3802,9.89583 14.0781,9.78125 L14.0781,9.15625 C14.5156,9.40625 14.7969,9.55208 14.9219,9.59375 C15.276,9.6875 15.6302,9.73438 15.9844,9.73438 C16.5573,9.73438 16.9844,9.61458 17.2656,9.375 C17.5469,9.125 17.6875,8.80729 17.6875,8.42188 C17.6875,8.08854 17.5938,7.84896 17.4062,7.70312 C17.1354,7.48438 16.7083,7.30729 16.125,7.17188 L15.7812,7.09375 C15.2708,6.96875 14.8854,6.80208 14.625,6.59375 C14.2917,6.32292 14.125,5.99479 14.125,5.60938 C14.125,4.98438 14.3255,4.53385 14.7266,4.25781 C15.1276,3.98177 15.6198,3.84375 16.2031,3.84375 C16.7031,3.84375 17.0469,3.86979 17.2344,3.92188 C17.4635,3.98438 17.6875,4.0625 17.9062,4.15625 M20.2188,7.60938 L20.2188,3.98438 L20.7031,3.98438 L20.7031,7.57812 C20.7031,8.35938 20.8307,8.90885 21.0859,9.22656 C21.3411,9.54427 21.7083,9.70312 22.1875,9.70312 C22.7604,9.70312 23.25,9.53125 23.6562,9.1875 C24.0625,8.84375 24.2656,8.24479 24.2656,7.39062 L24.2656,3.98438 L24.7656,3.98438 L24.7656,10 L24.2656,10 L24.2656,8.875 C24.0885,9.23958 23.8594,9.51562 23.5781,9.70312 C23.151,9.99479 22.6823,10.1406 22.1719,10.1406 C21.5781,10.1406 21.1042,9.9375 20.75,9.53125 C20.3958,9.13542 20.2188,8.49479 20.2188,7.60938 M29.5938,6.60938 C28.7917,6.60938 28.2161,6.75 27.8672,7.03125 C27.5182,7.3125 27.3438,7.72396 27.3438,8.26562 C27.3438,8.79688 27.4896,9.17448 27.7812,9.39844 C28.0729,9.6224 28.4167,9.73438 28.8125,9.73438 C29.5625,9.73438 30.1042,9.41667 30.4375,8.78125 C30.7708,8.13542 30.9375,7.53125 30.9375,6.96875 L30.9375,6.60938 L29.5938,6.60938 M31.4375,6.5625 L31.4375,10 L30.9375,10 L30.9375,8.35938 C30.6667,9.16146 30.3021,9.67188 29.8438,9.89062 C29.4896,10.0677 29.1302,10.1562 28.7656,10.1562 C28.1719,10.1562 27.7031,9.99479 27.3594,9.67188 C27.0156,9.34896 26.8438,8.8776 26.8438,8.25781 C26.8438,7.63802 27.0677,7.14062 27.5156,6.76562 C27.9635,6.39062 28.6927,6.20312 29.7031,6.20312 L30.9375,6.20312 L30.9375,6.10938 C30.9375,5.57812 30.7812,5.14062 30.4688,4.79688 C30.1771,4.45312 29.6823,4.28125 28.9844,4.28125 C28.6406,4.28125 28.2917,4.34375 27.9375,4.46875 C27.7083,4.55208 27.4062,4.71875 27.0312,4.96875 L27.0312,4.4375 C27.3542,4.23958 27.6562,4.09896 27.9375,4.01562 C28.3333,3.90104 28.7135,3.84375 29.0781,3.84375 C29.7969,3.84375 30.3854,4.05729 30.8438,4.48438 C31.2396,4.84896 31.4375,5.54167 31.4375,6.5625 M33.9219,1.64062 L34.4062,1.64062 L34.4062,10 L33.9219,10 L33.9219,1.64062 M36.9531,3.98438 L37.4531,3.98438 L37.4531,10 L36.9531,10 L36.9531,3.98438 M36.9531,1.64062 L37.4531,1.64062 L37.4531,2.3125 L36.9531,2.3125 L36.9531,1.64062 M39.375,3.98438 L44.0625,3.98438 L44.0625,4.54688 L39.7188,9.57812 L44.0625,9.57812 L44.0625,10 L39.2344,10 L39.2344,9.45312 L43.5781,4.40625 L39.375,4.40625 L39.375,3.98438 M50.4688,6.75 L50.4688,7.0625 L45.9062,7.0625 C45.9062,8.02083 46.0938,8.69792 46.4688,9.09375 C46.8854,9.52083 47.5,9.73438 48.3125,9.73438 C48.5312,9.73438 48.8177,9.6875 49.1719,9.59375 C49.526,9.5 49.8802,9.35938 50.2344,9.17188 L50.2344,9.6875 C49.8802,9.84375 49.5182,9.96094 49.1484,10.0391 C48.7786,10.1172 48.4844,10.1562 48.2656,10.1562 C47.3385,10.1562 46.6406,9.90625 46.1719,9.40625 C45.6615,8.875 45.4062,8.09375 45.4062,7.0625 C45.4062,5.98958 45.6354,5.1875 46.0938,4.65625 C46.5729,4.11458 47.2396,3.84375 48.0938,3.84375 C48.875,3.84375 49.4688,4.10417 49.875,4.625 C50.2708,5.16667 50.4688,5.875 50.4688,6.75 M49.9688,6.64062 C49.9688,5.79688 49.776,5.18229 49.3906,4.79688 C49.0781,4.45312 48.6458,4.28125 48.0938,4.28125 C47.5,4.28125 47,4.45833 46.5938,4.8125 C46.2188,5.14583 45.9948,5.75521 45.9219,6.64062 L49.9688,6.64062 M55.8125,4.40625 C55.7292,4.36458 55.6198,4.33333 55.4844,4.3125 C55.3594,4.29167 55.2083,4.28125 55.0312,4.28125 C54.4167,4.28125 53.9115,4.50521 53.5156,4.95312 C53.1927,5.31771 53.0312,5.94271 53.0312,6.82812 L53.0312,10 L52.5469,10 L52.5469,3.98438 L53.0312,3.98438 L53.0312,5.10938 C53.1979,4.78646 53.4271,4.51562 53.7188,4.29688 C54.1146,3.99479 54.5833,3.84375 55.125,3.84375 C55.2708,3.84375 55.3958,3.84896 55.5,3.85938 C55.6042,3.85938 55.7083,3.86979 55.8125,3.89062 L55.8125,4.40625"/>
</g>

<g fill="none" stroke="#000000" stroke-opacity="1" stroke-width="1" stroke-linecap="square" stroke-linejoin="bevel" transform="matrix(2,0,0,2,276.265,23)"
font-family="sans" font-size="11" font-weight="100" font-style="normal" 
>
</g>

<g fill="none" stroke="#000000" stroke-opacity="1" stroke-width="1" stroke-linecap="square" stroke-linejoin="bevel" transform="matrix(2,0,0,2,276.265,23)"
font-family="Sans Serif" font-size="9" font-weight="400" font-style="normal" 
>
</g>

<g fill="none" stroke="#000000" stroke-opacity="1" stroke-width="1" stroke-linecap="square" stroke-linejoin="bevel" transform="matrix(2,0,0,2,-0.0024,180)"
font-family="Sans Serif" font-size="9" font-weight="400" font-style="normal" 
>
</g>

<g fill="none" stroke="#000000" stroke-opacity="1" stroke-width="1" stroke-linecap="square" stroke-linejoin="bevel" transform="matrix(2,0,0,2,-0.0024,180)"
font-family="Sans Serif" font-size="9" font-weight="400" font-style="normal" 
>
</g>

<g fill="none" stroke="#000000" stroke-opacity="1" stroke-width="1" stroke-linecap="square" stroke-linejoin="bevel" transform="matrix(2,0,0,2,-0.0024,180)"
font-family="Sans Serif" font-size="9" font-weight="400" font-style="normal" 
>
</g>

<g fill="none" stroke="#000000" stroke-opacity="1" stroke-width="1" stroke-linecap="square" stroke-linejoin="round" transform="matrix(2,0,0,2,-0.0024,180)"
font-family="Sans Serif" font-size="9" font-weight="400" font-style="normal" 
>
<path vector-effect="none" fill-rule="evenodd" d="M76.756,-37.263 C88.703,-34.656 102.27,-31.697 115.12,-28.893 "/>
</g>

<g fill="none" stroke="#000000" stroke-opacity="1" stroke-width="1" stroke-linecap="square" stroke-linejoin="bevel" transform="matrix(2,0,0,2,-0.0024,180)"
font-family="Sans Serif" font-size="9" font-weight="400" font-style="normal" 
>
</g>

<g fill="none" stroke="#000000" stroke-opacity="1" stroke-width="1" stroke-linecap="square" stroke-linejoin="bevel" transform="matrix(2,0,0,2,179.98,86)"
font-family="Sans Serif" font-size="9" font-weight="400" font-style="normal" 
>
</g>

<g fill="none" stroke="#000000" stroke-opacity="1" stroke-width="1" stroke-linecap="square" stroke-linejoin="bevel" transform="matrix(2,0,0,2,179.98,86)"
font-family="sans" font-size="11" font-weight="100" font-style="normal" 
>
</g>

<g fill="#000000" fill-opacity="1" stroke="#000000" stroke-opacity="1" stroke-width="1" stroke-linecap="square" stroke-linejoin="round" transform="matrix(2,0,0,2,179.98,86)"
font-family="sans" font-size="11" font-weight="100" font-style="normal" 
>
<path vector-effect="none" fill-rule="nonzero" d="M2.96875,1.98438 L3.53125,1.98438 L0.734375,11.0156 L0.171875,11.0156 L2.96875,1.98438 M5.45312,1.64062 L5.95312,1.64062 L5.95312,6.71875 L8.9375,3.98438 L9.60938,3.98438 L6.5,6.82812 L9.71875,10 L9.07812,10 L5.95312,6.92188 L5.95312,10 L5.45312,10 L5.45312,1.64062 M11.2969,3.98438 L11.7969,3.98438 L11.7969,10 L11.2969,10 L11.2969,3.98438 M11.2969,1.64062 L11.7969,1.64062 L11.7969,2.3125 L11.2969,2.3125 L11.2969,1.64062 M14.3594,1.64062 L14.8438,1.64062 L14.8438,10 L14.3594,10 L14.3594,1.64062 M17.4062,1.64062 L17.8906,1.64062 L17.8906,10 L17.4062,10 L17.4062,1.64062"/>
</g>

<g fill="none" stroke="#000000" stroke-opacity="1" stroke-width="1" stroke-linecap="square" stroke-linejoin="bevel" transform="matrix(2,0,0,2,179.98,86)"
font-family="sans" font-size="11" font-weight="100" font-style="normal" 
>
</g>

<g fill="none" stroke="#000000" stroke-opacity="1" stroke-width="1" stroke-linecap="square" stroke-linejoin="bevel" transform="matrix(2,0,0,2,179.98,86)"
font-family="Sans Serif" font-size="9" font-weight="400" font-style="normal" 
>
</g>

<g fill="none" stroke="#000000" stroke-opacity="1" stroke-width="1" stroke-linecap="square" stroke-linejoin="bevel" transform="matrix(2,0,0,2,-0.0024,180)"
font-family="Sans Serif" font-size="9" font-weight="400" font-style="normal" 
>
</g>

<g fill="#000000" fill-opacity="1" stroke="#000000" stroke-opacity="1" stroke-width="1" stroke-linecap="square" stroke-linejoin="round" transform="matrix(2,0,0,2,-0.0024,180)"
font-family="Sans Serif" font-size="9" font-weight="400" font-style="normal" 
>
<path vector-effect="none" fill-rule="evenodd" d="M115.12,-28.893 L114.348,-25.358 L125.22,-26.688 L115.892,-32.428 L115.12,-28.893"/>
</g>

<g fill="none" stroke="#000000" stroke-opacity="1" stroke-width="1" stroke-linecap="square" stroke-linejoin="bevel" transform="matrix(2,0,0,2,-0.0024,180)"
font-family="Sans Serif" font-size="9" font-weight="400" font-style="normal" 
>
</g>

<g fill="none" stroke="#000000" stroke-opacity="1" stroke-width="1" stroke-linecap="square" stroke-linejoin="bevel" transform="matrix(2,0,0,2,-0.0024,180)"
font-family="Sans Serif" font-size="9" font-weight="400" font-style="normal" 
>
</g>

<g fill="none" stroke="#000000" stroke-opacity="1" stroke-width="1" stroke-linecap="square" stroke-linejoin="bevel" transform="matrix(2,0,0,2,-0.0024,180)"
font-family="Sans Serif" font-size="9" font-weight="400" font-style="normal" 
>
</g>

<g fill="none" stroke="#000000" stroke-opacity="1" stroke-width="1" stroke-linecap="square" stroke-linejoin="bevel" transform="matrix(2,0,0,2,-0.0024,180)"
font-family="Sans Serif" font-size="9" font-weight="400" font-style="normal" 
>
</g>

<g fill="none" stroke="#000000" stroke-opacity="1" stroke-width="1" stroke-linecap="square" stroke-linejoin="round" transform="matrix(2,0,0,2,-0.0024,180)"
font-family="Sans Serif" font-size="9" font-weight="400" font-style="normal" 
>
<path vector-effect="none" fill-rule="evenodd" d="M76.756,-52.737 C88.477,-55.295 101.76,-58.192 114.39,-60.948 "/>
</g>

<g fill="none" stroke="#000000" stroke-opacity="1" stroke-width="1" stroke-linecap="square" stroke-linejoin="bevel" transform="matrix(2,0,0,2,-0.0024,180)"
font-family="Sans Serif" font-size="9" font-weight="400" font-style="normal" 
>
</g>

<g fill="none" stroke="#000000" stroke-opacity="1" stroke-width="1" stroke-linecap="square" stroke-linejoin="bevel" transform="matrix(2,0,0,2,179.98,32)"
font-family="Sans Serif" font-size="9" font-weight="400" font-style="normal" 
>
</g>

<g fill="none" stroke="#000000" stroke-opacity="1" stroke-width="1" stroke-linecap="square" stroke-linejoin="bevel" transform="matrix(2,0,0,2,179.98,32)"
font-family="sans" font-size="11" font-weight="100" font-style="normal" 
>
</g>

<g fill="#000000" fill-opacity="1" stroke="#000000" stroke-opacity="1" stroke-width="1" stroke-linecap="square" stroke-linejoin="round" transform="matrix(2,0,0,2,179.98,32)"
font-family="sans" font-size="11" font-weight="100" font-style="normal" 
>
<path vector-effect="none" fill-rule="nonzero" d="M2.96875,1.98438 L3.53125,1.98438 L0.734375,11.0156 L0.171875,11.0156 L2.96875,1.98438 M5.45312,1.64062 L5.95312,1.64062 L5.95312,6.71875 L8.9375,3.98438 L9.60938,3.98438 L6.5,6.82812 L9.71875,10 L9.07812,10 L5.95312,6.92188 L5.95312,10 L5.45312,10 L5.45312,1.64062 M11.2969,3.98438 L11.7969,3.98438 L11.7969,10 L11.2969,10 L11.2969,3.98438 M11.2969,1.64062 L11.7969,1.64062 L11.7969,2.3125 L11.2969,2.3125 L11.2969,1.64062 M14.3594,1.64062 L14.8438,1.64062 L14.8438,10 L14.3594,10 L14.3594,1.64062 M17.4062,1.64062 L17.8906,1.64062 L17.8906,10 L17.4062,10 L17.4062,1.64062"/>
</g>

<g fill="none" stroke="#000000" stroke-opacity="1" stroke-width="1" stroke-linecap="square" stroke-linejoin="bevel" transform="matrix(2,0,0,2,179.98,32)"
font-family="sans" font-size="11" font-weight="100" font-style="normal" 
>
</g>

<g fill="none" stroke="#000000" stroke-opacity="1" stroke-width="1" stroke-linecap="square" stroke-linejoin="bevel" transform="matrix(2,0,0,2,179.98,32)"
font-family="Sans Serif" font-size="9" font-weight="400" font-style="normal" 
>
</g>

<g fill="none" stroke="#000000" stroke-opacity="1" stroke-width="1" stroke-linecap="square" stroke-linejoin="bevel" transform="matrix(2,0,0,2,-0.0024,180)"
font-family="Sans Serif" font-size="9" font-weight="400" font-style="normal" 
>
</g>

<g fill="#000000" fill-opacity="1" stroke="#000000" stroke-opacity="1" stroke-width="1" stroke-linecap="square" stroke-linejoin="round" transform="matrix(2,0,0,2,-0.0024,180)"
font-family="Sans Serif" font-size="9" font-weight="400" font-style="normal" 
>
<path vector-effect="none" fill-rule="evenodd" d="M114.39,-60.948 L115.15,-57.4655 L124.34,-63.119 L113.63,-64.4305 L114.39,-60.948"/>
</g>

<g fill="none" stroke="#000000" stroke-opacity="1" stroke-width="1" stroke-linecap="square" stroke-linejoin="bevel" transform="matrix(2,0,0,2,-0.0024,180)"
font-family="Sans Serif" font-size="9" font-weight="400" font-style="normal" 
>
</g>

<g fill="none" stroke="#000000" stroke-opacity="1" stroke-width="1" stroke-linecap="square" stroke-linejoin="bevel" transform="matrix(1,0,0,1,0,0)"
font-family="Sans Serif" font-size="9" font-weight="400" font-style="normal" 
>
</g>
</g>
</svg>
